<svg width="20" height="20" viewBox="0 0 32 32" fill="none" xmlns="http://www.w3.org/2000/svg">
<g clip-path="url(#clip0_3530_16556)">
<path fill-rule="evenodd" clip-rule="evenodd" d="M29.8023 24.317C30.2748 24.05 30.4362 23.4582 30.1637 22.9953C29.8911 22.5329 29.2874 22.3741 28.8149 22.6411L15.9212 29.9362L3.07472 22.6683C2.6029 22.4012 1.99909 22.5594 1.72606 23.0225C1.45356 23.4854 1.6155 24.077 2.0875 24.3441L15.3898 31.8698C15.5054 31.9353 15.6328 31.9771 15.7646 31.9929C15.8964 32.0087 16.03 31.9981 16.1577 31.9617C16.2781 31.9433 16.3942 31.9031 16.5003 31.8431L29.8023 24.317Z" fill="black"/>
<path fill-rule="evenodd" clip-rule="evenodd" d="M31.1297 16.6012C31.1973 16.1929 31.006 15.7675 30.6176 15.5488L16.5549 7.63105C16.4442 7.56873 16.3233 7.52682 16.1979 7.50732C16.063 7.46888 15.9219 7.45758 15.7826 7.47405C15.6433 7.49053 15.5087 7.53446 15.3864 7.60332L1.32282 15.5214C0.913899 15.7518 0.723613 16.2117 0.824426 16.6391C0.780132 16.9913 0.917797 17.3598 1.32761 17.5916L15.3903 25.5478C15.5126 25.6169 15.6474 25.661 15.7868 25.6776C15.9262 25.6942 16.0674 25.6829 16.2025 25.6445C16.3296 25.6253 16.4521 25.583 16.5641 25.5197L30.6274 17.563C31.0407 17.329 31.1775 16.9562 31.1297 16.6012ZM28.2265 16.5591L15.9458 9.64453L3.67199 16.5554L15.9527 23.5034L28.2265 16.5591Z" fill="black"/>
<path fill-rule="evenodd" clip-rule="evenodd" d="M31.3432 10.6097C31.868 10.3131 32.0479 9.65609 31.7445 9.14179C31.4419 8.6282 30.7715 8.45202 30.2467 8.74855L15.9272 16.8501L1.66091 8.77877C1.13612 8.48153 0.465688 8.65788 0.163073 9.17201C-0.14025 9.68542 0.0394056 10.3432 0.564375 10.6397L15.3373 18.9976C15.4657 19.0702 15.6073 19.1165 15.7537 19.134C15.9001 19.1514 16.0485 19.1395 16.1903 19.0991C16.3239 19.0791 16.4527 19.0347 16.5704 18.9681L31.3432 10.6097Z" fill="black"/>
<path d="M2.74023 9.6795L15.899 1.62024L29.0576 9.67879L15.8988 17.2013L2.74023 9.6795Z" fill="black"/>
<path fill-rule="evenodd" clip-rule="evenodd" d="M31.3255 8.49027C31.8513 8.78627 32.0333 9.44279 31.7325 9.95692C31.4307 10.4707 30.7603 10.6474 30.2344 10.3514L15.9128 2.28787L1.64317 10.3224C1.11731 10.6184 0.44688 10.4415 0.145328 9.92794C-0.15587 9.41381 0.0262666 8.75729 0.55159 8.46129L15.325 0.143725C15.4534 0.0713274 15.5949 0.0251207 15.7412 0.00776107C15.8875 -0.00959854 16.0358 0.00223135 16.1775 0.0425706C16.3093 0.0631109 16.4364 0.107185 16.5526 0.172702L31.3255 8.49027Z" fill="black"/>
</g>
<defs>
<clipPath id="clip0_3530_16556">
<rect width="32" height="32" fill="white"/>
</clipPath>
</defs>
</svg>
